<svg width="17" height="17" viewBox="0 0 17 17" fill="none" xmlns="http://www.w3.org/2000/svg">
<path fill-rule="evenodd" clip-rule="evenodd" d="M4.20866 9.58329C7.59949 9.58329 7.75033 10.7333 7.75033 13.125C7.75033 14.3233 7.75033 15.1758 7.24699 15.8C6.66783 16.5191 5.61366 16.6666 4.20866 16.6666C2.80366 16.6666 1.74949 16.5191 1.17033 15.8C0.666992 15.1758 0.666992 14.3241 0.666992 13.1458L1.29199 13.125H0.666992C0.666992 10.7333 0.817826 9.58329 4.20866 9.58329ZM13.3753 9.58329C16.7662 9.58329 16.917 10.7333 16.917 13.125C16.917 14.3233 16.917 15.1758 16.4137 15.8C15.8345 16.5191 14.7803 16.6666 13.3753 16.6666C11.9703 16.6666 10.9162 16.5191 10.337 15.8C9.83366 15.1758 9.83366 14.3241 9.83366 13.1458L10.4587 13.125H9.83366C9.83366 10.7333 9.98449 9.58329 13.3753 9.58329ZM4.38046 10.8337L4.20866 10.8333C2.03451 10.8333 1.92302 10.9893 1.9173 12.8142L1.91765 13.5251C1.9216 14.2509 1.94925 14.7752 2.14283 15.0166C2.36366 15.29 3.01949 15.4166 4.20866 15.4166C5.39783 15.4166 6.05366 15.2891 6.27449 15.0158C6.50033 14.735 6.50033 14.0683 6.50033 13.145C6.50033 11.0615 6.50033 10.8435 4.38046 10.8337ZM13.5471 10.8337L13.3753 10.8333C11.2012 10.8333 11.0897 10.9893 11.084 12.8142L11.0843 13.5251C11.0883 14.2509 11.1159 14.7752 11.3095 15.0166C11.5303 15.29 12.1862 15.4166 13.3753 15.4166C14.5645 15.4166 15.2203 15.2891 15.4412 15.0158C15.667 14.735 15.667 14.0683 15.667 13.145C15.667 11.0615 15.667 10.8435 13.5471 10.8337ZM4.20866 0.416626C7.59949 0.416626 7.75033 1.56663 7.75033 3.95829C7.75033 5.15663 7.75033 6.00913 7.24699 6.63329C6.66783 7.35246 5.61366 7.49996 4.20866 7.49996C2.80366 7.49996 1.74949 7.35246 1.17033 6.63329C0.666992 6.00913 0.666992 5.15746 0.666992 3.97913L1.29199 3.95829H0.666992C0.666992 1.56663 0.817826 0.416626 4.20866 0.416626ZM13.3753 0.416626C16.7662 0.416626 16.917 1.56663 16.917 3.95829C16.917 5.15663 16.917 6.00913 16.4137 6.63329C15.8345 7.35246 14.7803 7.49996 13.3753 7.49996C11.9703 7.49996 10.9162 7.35246 10.337 6.63329C9.83366 6.00913 9.83366 5.15746 9.83366 3.97913L10.4587 3.95829H9.83366C9.83366 1.56663 9.98449 0.416626 13.3753 0.416626ZM4.38046 1.667L4.20866 1.66663C2.03451 1.66663 1.92302 1.82264 1.9173 3.6475L1.91765 4.35844C1.9216 5.08424 1.94925 5.60853 2.14283 5.84996C2.36366 6.12329 3.01949 6.24996 4.20866 6.24996C5.39783 6.24996 6.05366 6.12246 6.27449 5.84913C6.50033 5.56829 6.50033 4.90163 6.50033 3.97829C6.50033 1.89479 6.50033 1.67681 4.38046 1.667ZM13.5471 1.667L13.3753 1.66663C11.2012 1.66663 11.0897 1.82264 11.084 3.6475L11.0843 4.35844C11.0883 5.08424 11.1159 5.60853 11.3095 5.84996C11.5303 6.12329 12.1862 6.24996 13.3753 6.24996C14.5645 6.24996 15.2203 6.12246 15.4412 5.84913C15.667 5.56829 15.667 4.90163 15.667 3.97829C15.667 1.89479 15.667 1.67681 13.5471 1.667Z" fill="white"/>
</svg>
